<svg xmlns="http://www.w3.org/2000/svg" version="1.1" xmlns:xlink="http://www.w3.org/1999/xlink" width="1000" height="1000"><g clip-path="url(#SvgjsClipPath1003)"><rect width="1000" height="1000" fill="#ffffff"></rect><g transform="matrix(3.5,0,0,3.5,150,150)"><svg xmlns="http://www.w3.org/2000/svg" version="1.1" xmlns:xlink="http://www.w3.org/1999/xlink" width="200" height="200"><svg xmlns="http://www.w3.org/2000/svg" version="1.1" xmlns:xlink="http://www.w3.org/1999/xlink" viewBox="0 0 200 200"><rect width="200" height="200" fill="url('#gradient')"></rect><defs><linearGradient id="gradient" gradientTransform="rotate(97 0.5 0.5)"><stop offset="0%" stop-color="#234e33"></stop><stop offset="100%" stop-color="#356346"></stop></linearGradient><clipPath id="SvgjsClipPath1003"><rect width="1000" height="1000" x="0" y="0" rx="350" ry="350"></rect></clipPath></defs><g><g fill="#ffffff" transform="matrix(6.463412844036697,0,0,6.463412844036697,21.31010057831685,134.32321928405761)" stroke="#f1f1f1" stroke-width="0"><path d="M1.16-10.57L4.46-10.57L4.46 0.36Q4.45 2.24 3.39 3.25Q2.32 4.27 0.42 4.27L0.42 4.27Q-0.40 4.27-1.13 4.10L-1.13 4.10L-1.13 1.61Q-0.57 1.70-0.21 1.70L-0.21 1.70Q1.16 1.70 1.16 0.34L1.16 0.34L1.16-10.57ZM0.92-13.29L0.92-13.29Q0.92-13.99 1.43-14.44Q1.93-14.89 2.74-14.89Q3.55-14.89 4.06-14.44Q4.57-13.99 4.57-13.29Q4.57-12.59 4.06-12.14Q3.55-11.69 2.74-11.69Q1.93-11.69 1.43-12.14Q0.92-12.59 0.92-13.29ZM16.13-5.36L16.13-5.21Q16.13-2.74 15.02-1.27Q13.92 0.20 12.03 0.20L12.03 0.20Q10.58 0.20 9.64-0.87L9.64-0.87L9.64 4.06L6.35 4.06L6.35-10.57L9.42-10.57L9.52-9.59Q10.47-10.76 12.01-10.76L12.01-10.76Q13.96-10.76 15.05-9.32Q16.13-7.88 16.13-5.36L16.13-5.36ZM12.84-5.06L12.84-5.41Q12.84-8.22 11.20-8.22L11.20-8.22Q10.03-8.22 9.64-7.38L9.64-7.38L9.64-3.22Q10.07-2.34 11.22-2.34L11.22-2.34Q12.79-2.34 12.84-5.06L12.84-5.06ZM25.48 0L25.48 2.45L16.66 2.45L16.66 0L25.48 0Z"></path></g></g></svg></svg></g></g></svg>